<svg xmlns="http://www.w3.org/2000/svg" version="1.1" xmlns:xlink="http://www.w3.org/1999/xlink" width="1500" height="1500" viewBox="0 0 1500 1500"><rect width="1500" height="1500" x="0" y="0" id="background" stroke="transparent" fill="#e7644d"></rect><svg xml:space="preserve" width="1000" height="1000" data-version="2" data-id="lg_D0W4BX3q76reHeNdFm" viewBox="0 0 581 67" x="250" y="250"><rect width="100%" height="100%" fill="transparent"></rect><path fill="none" stroke="#e64a2e" d="M5.785 1.005h51.61v26.77h-19.87v3.68h19.87v12.88h-19.87v20.24H5.785Zm87.21 44.99v18.58h-31.64V1.005h33.39q16.47 0 24.2 5.38t7.73 18.63q0 10.03-6.54 14.81 5.52 9.85 8.38 24.75h-30.27q-.74-9.29-2.58-16.38l-.64-2.2Zm0-7.46h2.67q1.11 0 1.84-.73.74-.74.74-1.93v-5.52q0-1.2-.74-1.89-.73-.69-1.84-.69h-2.67Zm73.88 26.04-.55-9.84h-5.61l-.56 9.84h-28.98q.92-15.09 3.78-30.96 2.85-15.87 5.24-24.24l2.3-8.37h43.61q1.01 3.31 2.57 9.2 1.57 5.89 4.6 22.58 3.04 16.7 4.14 31.79Zm-4.78-32.66-.74 14.35h4.32l-.64-14.35Zm113.34-30.91v63.57h-31.74v-23l-4.05 10.67h-2.39l-4.23-10.67v23h-31.65V1.005h31.65l4.23 12.23h2.39l4.05-12.23Zm5.24 0h51.52v26.77h-19.87v3.68h19.87v5.8h-19.87v3.68h20.7v23.64h-52.35Zm56.22 0h51.61v26.77h-19.87v3.68h19.87v12.88h-19.87v20.24h-31.74Zm55.56 0h31.65v39.93h9.39v23.64h-41.04Zm81.79 0h30.27v35.33q0 14.9-7.59 22.03-7.59 7.13-24.15 7.13h-2.39q-16.47 0-24.06-7.18-7.59-7.17-7.59-21.98V1.005h30.18v38.73q0 1.2.73 1.89.74.69 1.89.69t1.93-.74q.78-.74.78-1.84Zm68.08 42.13h-1.93l-2.12 21.44h-29.9l5.8-32.75-5.8-30.82h29.72l2.3 26.77h2.21l2.02-26.77h30.09l-6.17 31.37 6.17 32.2h-30Z"></path><path fill="#f1e3d9" d="M5.785 1.005h51.61v26.77h-19.87v3.68h19.87v12.88h-19.87v20.24H5.785Z"></path><rect width="51.61" height="63.57" x="-25.8" y="-31.79" fill="none" rx="0" ry="0" transform="translate(32.09 33.29)"></rect><path fill="#f1e3d9" d="M92.995 45.995v18.58h-31.64V1.005h33.39q16.47 0 24.2 5.38t7.73 18.63q0 10.03-6.54 14.81 5.52 9.85 8.38 24.75h-30.27q-.74-9.29-2.58-16.38l-.64-2.2Zm0-7.46h2.67q1.11 0 1.84-.73.74-.74.74-1.93v-5.52q0-1.2-.74-1.89-.73-.69-1.84-.69h-2.67Z"></path><rect width="67.16" height="63.57" x="-33.58" y="-31.79" fill="none" rx="0" ry="0" transform="translate(95.44 33.29)"></rect><path fill="#f1e3d9" d="m166.875 64.575-.55-9.84h-5.61l-.56 9.84h-28.98q.92-15.09 3.78-30.96 2.85-15.87 5.24-24.24l2.3-8.37h43.61q1.01 3.31 2.57 9.2 1.57 5.89 4.6 22.58 3.04 16.7 4.14 31.79Zm-4.78-32.66-.74 14.35h4.32l-.64-14.35Z"></path><rect width="66.24" height="63.57" x="-33.12" y="-31.79" fill="none" rx="0" ry="0" transform="translate(164.8 33.29)"></rect><path fill="#f1e3d9" d="M275.435 1.005v63.57h-31.74v-23l-4.05 10.67h-2.39l-4.23-10.67v23h-31.65V1.005h31.65l4.23 12.23h2.39l4.05-12.23Z"></path><rect width="74.06" height="63.57" x="-37.03" y="-31.79" fill="none" rx="0" ry="0" transform="translate(238.9 33.29)"></rect><path fill="#f1e3d9" d="M280.675 1.005h51.52v26.77h-19.87v3.68h19.87v5.8h-19.87v3.68h20.7v23.64h-52.35Z"></path><rect width="52.35" height="63.57" x="-26.18" y="-31.79" fill="none" rx="0" ry="0" transform="translate(307.35 33.29)"></rect><path fill="#f1e3d9" d="M336.895 1.005h51.61v26.77h-19.87v3.68h19.87v12.88h-19.87v20.24h-31.74Z"></path><rect width="51.61" height="63.57" x="-25.8" y="-31.79" fill="none" rx="0" ry="0" transform="translate(363.2 33.29)"></rect><path fill="#f1e3d9" d="M392.455 1.005h31.65v39.93h9.39v23.64h-41.04Z"></path><rect width="41.04" height="63.57" x="-20.52" y="-31.79" fill="none" rx="0" ry="0" transform="translate(413.48 33.29)"></rect><path fill="#f1e3d9" d="M474.245 1.005h30.27v35.33q0 14.9-7.59 22.03-7.59 7.13-24.15 7.13h-2.39q-16.47 0-24.06-7.18-7.59-7.17-7.59-21.98V1.005h30.18v38.73q0 1.2.73 1.89.74.69 1.89.69t1.93-.74q.78-.74.78-1.84Z"></path><rect width="65.78" height="64.49" x="-32.89" y="-32.24" fill="none" rx="0" ry="0" transform="translate(472.13 33.75)"></rect><path fill="#f1e3d9" d="M542.325 43.135h-1.93l-2.12 21.44h-29.9l5.8-32.75-5.8-30.82h29.72l2.3 26.77h2.21l2.02-26.77h30.09l-6.17 31.37 6.17 32.2h-30Z"></path><rect width="66.34" height="63.57" x="-33.17" y="-31.79" fill="none" rx="0" ry="0" transform="translate(542.04 33.29)"></rect></svg></svg>